# xmcd CD database file
#
# Track frame offsets:
#	150
#	15252
#	31862
#	55550
#	69812
#	86679
#	108717
#	130292
#	157395
#
# Disc length: 2425 seconds
#
# Revision: 1
# Processed by: cddbd v1.4PL0 Copyright (c) Steve Scherf et al.
# Submitted via: CDex 1.50beta10
#
DISCID=6b097709
DTITLE=Cal Tjader Quartet - Cal Tjader Quartet
DYEAR=1956
DGENRE=Jazz
TTITLE0=Battle Hymn Of The Republic
TTITLE1=It Never Entered My Mind
TTITLE2=A Light Groove
TTITLE3=The Night We Called It Day
TTITLE4=Fancy Bea
TTITLE5=A Fifth For Frank
TTITLE6=For All We Know
TTITLE7=Miss Wiggins
TTITLE8=Our Love Is Here To Stay
EXTD=YEAR: 1956
EXTT0=
EXTT1=
EXTT2=
EXTT3=
EXTT4=
EXTT5=
EXTT6=
EXTT7=
EXTT8=
PLAYORDER=
